%TF.GenerationSoftware,KiCad,Pcbnew,9.0.5*%
%TF.CreationDate,2026-06-12T21:43:16+02:00*%
%TF.ProjectId,Explit,4578706c-6974-42e6-9b69-6361645f7063,rev?*%
%TF.SameCoordinates,Original*%
%TF.FileFunction,Copper,L2,Bot*%
%TF.FilePolarity,Positive*%
%FSLAX46Y46*%
G04 Gerber Fmt 4.6, Leading zero omitted, Abs format (unit mm)*
G04 Created by KiCad (PCBNEW 9.0.5) date 2026-06-12 21:43:16*
%MOMM*%
%LPD*%
G01*
G04 APERTURE LIST*
%TA.AperFunction,ComponentPad*%
%ADD10R,1.700000X1.700000*%
%TD*%
%TA.AperFunction,ComponentPad*%
%ADD11C,1.700000*%
%TD*%
%TA.AperFunction,ViaPad*%
%ADD12C,0.600000*%
%TD*%
%TA.AperFunction,Conductor*%
%ADD13C,0.406400*%
%TD*%
G04 APERTURE END LIST*
D10*
%TO.P,J1,1,Pin_1*%
%TO.N,Net-(J1-Pin_1)*%
X139700000Y-78740000D03*
D11*
%TO.P,J1,2,Pin_2*%
%TO.N,/5V*%
X139700000Y-76200000D03*
%TO.P,J1,3,Pin_3*%
%TO.N,Net-(J1-Pin_3)*%
X142240000Y-78740000D03*
%TO.P,J1,4,Pin_4*%
%TO.N,Net-(J1-Pin_4)*%
X142240000Y-76200000D03*
%TO.P,J1,5,Pin_5*%
%TO.N,Net-(J1-Pin_5)*%
X144780000Y-78740000D03*
%TO.P,J1,6,Pin_6*%
%TO.N,Net-(J1-Pin_6)*%
X144780000Y-76200000D03*
%TO.P,J1,7,Pin_7*%
%TO.N,Net-(J1-Pin_7)*%
X147320000Y-78740000D03*
%TO.P,J1,8,Pin_8*%
%TO.N,unconnected-(J1-Pin_8-Pad8)*%
X147320000Y-76200000D03*
%TO.P,J1,9,Pin_9*%
%TO.N,Net-(J1-Pin_9)*%
X149860000Y-78740000D03*
%TO.P,J1,10,Pin_10*%
%TO.N,Net-(J1-Pin_10)*%
X149860000Y-76200000D03*
%TO.P,J1,11,Pin_11*%
%TO.N,Net-(J1-Pin_11)*%
X152400000Y-78740000D03*
%TO.P,J1,12,Pin_12*%
%TO.N,Net-(J1-Pin_12)*%
X152400000Y-76200000D03*
%TO.P,J1,13,Pin_13*%
%TO.N,Net-(J1-Pin_13)*%
X154940000Y-78740000D03*
%TO.P,J1,14,Pin_14*%
%TO.N,Net-(J1-Pin_14)*%
X154940000Y-76200000D03*
%TO.P,J1,15,Pin_15*%
%TO.N,Net-(J1-Pin_15)*%
X157480000Y-78740000D03*
%TO.P,J1,16,Pin_16*%
%TO.N,Net-(J1-Pin_16)*%
X157480000Y-76200000D03*
%TD*%
D10*
%TO.P,J2,1,Pin_1*%
%TO.N,Net-(J1-Pin_4)*%
X109220000Y-68580000D03*
D11*
%TO.P,J2,2,Pin_2*%
X111760000Y-68580000D03*
%TO.P,J2,3,Pin_3*%
%TO.N,Net-(J1-Pin_12)*%
X114300000Y-68580000D03*
%TO.P,J2,4,Pin_4*%
%TO.N,Net-(J1-Pin_14)*%
X116840000Y-68580000D03*
%TO.P,J2,5,Pin_5*%
%TO.N,Net-(J1-Pin_6)*%
X119380000Y-68580000D03*
%TO.P,J2,6,Pin_6*%
%TO.N,unconnected-(J2-Pin_6-Pad6)*%
X121920000Y-68580000D03*
%TO.P,J2,7,Pin_7*%
%TO.N,unconnected-(J2-Pin_7-Pad7)*%
X124460000Y-68580000D03*
%TO.P,J2,8,Pin_8*%
%TO.N,unconnected-(J2-Pin_8-Pad8)*%
X127000000Y-68580000D03*
%TO.P,J2,9,Pin_9*%
%TO.N,Net-(J1-Pin_16)*%
X129540000Y-68580000D03*
%TO.P,J2,10,Pin_10*%
%TO.N,/5V*%
X132080000Y-68580000D03*
%TO.P,J2,11,Pin_11*%
%TO.N,Net-(J1-Pin_15)*%
X134620000Y-68580000D03*
%TO.P,J2,12,Pin_12*%
%TO.N,Net-(J1-Pin_13)*%
X137160000Y-68580000D03*
%TO.P,J2,13,Pin_13*%
%TO.N,Net-(J1-Pin_11)*%
X139700000Y-68580000D03*
%TO.P,J2,14,Pin_14*%
%TO.N,Net-(J1-Pin_9)*%
X142240000Y-68580000D03*
%TO.P,J2,15,Pin_15*%
%TO.N,Net-(J1-Pin_7)*%
X144780000Y-68580000D03*
%TO.P,J2,16,Pin_16*%
%TO.N,unconnected-(J2-Pin_16-Pad16)*%
X147320000Y-68580000D03*
%TO.P,J2,17,Pin_17*%
%TO.N,Net-(J2-Pin_17)*%
X149860000Y-68580000D03*
%TO.P,J2,18,Pin_18*%
%TO.N,Net-(J1-Pin_5)*%
X152400000Y-68580000D03*
%TO.P,J2,19,Pin_19*%
%TO.N,Net-(J1-Pin_3)*%
X154940000Y-68580000D03*
%TO.P,J2,20,Pin_20*%
%TO.N,Net-(J1-Pin_1)*%
X157480000Y-68580000D03*
%TD*%
D12*
%TO.N,Net-(J1-Pin_4)*%
X154686000Y-71374000D03*
X151892000Y-71374000D03*
X148590000Y-71374000D03*
X139192000Y-71374000D03*
X133858000Y-71628000D03*
X131572000Y-72390000D03*
X128270000Y-72390000D03*
%TO.N,Net-(J1-Pin_6)*%
X124460000Y-74930000D03*
%TO.N,Net-(J1-Pin_9)*%
X143510000Y-71628000D03*
%TO.N,Net-(J1-Pin_11)*%
X141605000Y-71120000D03*
%TO.N,Net-(J1-Pin_13)*%
X138430000Y-70358000D03*
%TD*%
D13*
%TO.N,Net-(J1-Pin_7)*%
X144780000Y-69215000D02*
X144780000Y-68580000D01*
X145415000Y-69850000D02*
X144780000Y-69215000D01*
X151765000Y-69850000D02*
X145415000Y-69850000D01*
X155575000Y-73660000D02*
X151765000Y-69850000D01*
X156845000Y-73660000D02*
X155575000Y-73660000D01*
X157999507Y-74945800D02*
X157999507Y-74814507D01*
X158684353Y-76769353D02*
X158734200Y-76719507D01*
X158734200Y-79259507D02*
X158734200Y-76819200D01*
X157999507Y-74814507D02*
X156845000Y-73660000D01*
X157983707Y-80010000D02*
X158734200Y-79259507D01*
X158734200Y-76719507D02*
X158734200Y-75680493D01*
X148590000Y-80010000D02*
X157983707Y-80010000D01*
X158734200Y-76819200D02*
X158684353Y-76769353D01*
X147320000Y-78740000D02*
X148590000Y-80010000D01*
X158734200Y-75680493D02*
X157999507Y-74945800D01*
%TO.N,Net-(J1-Pin_13)*%
X138471600Y-70316400D02*
X138430000Y-70358000D01*
X149514900Y-70457400D02*
X144194284Y-70457400D01*
X153685800Y-74628300D02*
X149514900Y-70457400D01*
X153685800Y-77485800D02*
X153685800Y-74628300D01*
X144053283Y-70316400D02*
X138471600Y-70316400D01*
X154940000Y-78740000D02*
X153685800Y-77485800D01*
X144194284Y-70457400D02*
X144053283Y-70316400D01*
%TO.N,Net-(J1-Pin_11)*%
X141660200Y-71064800D02*
X141605000Y-71120000D01*
X143077310Y-71064800D02*
X141660200Y-71064800D01*
X143942690Y-71064800D02*
X143801690Y-70923800D01*
X143801690Y-70923800D02*
X143218310Y-70923800D01*
X146498507Y-71064800D02*
X143942690Y-71064800D01*
X151114200Y-75680493D02*
X146498507Y-71064800D01*
X151114200Y-77454200D02*
X151114200Y-75680493D01*
X152400000Y-78740000D02*
X151114200Y-77454200D01*
X143218310Y-70923800D02*
X143077310Y-71064800D01*
%TO.N,Net-(J1-Pin_9)*%
X148605800Y-77485800D02*
X148605800Y-75712093D01*
X148605800Y-75712093D02*
X144648707Y-71755000D01*
X144648707Y-71755000D02*
X143637000Y-71755000D01*
X149860000Y-78740000D02*
X148605800Y-77485800D01*
X143637000Y-71755000D02*
X143510000Y-71628000D01*
%TO.N,Net-(J1-Pin_5)*%
X159385000Y-79467701D02*
X159385000Y-74930000D01*
X153035000Y-68580000D02*
X152400000Y-68580000D01*
X146657400Y-80617400D02*
X158235301Y-80617400D01*
X158235301Y-80617400D02*
X159385000Y-79467701D01*
X159385000Y-74930000D02*
X153035000Y-68580000D01*
X144780000Y-78740000D02*
X146657400Y-80617400D01*
%TO.N,Net-(J1-Pin_1)*%
X160627400Y-71727400D02*
X157480000Y-68580000D01*
X158738489Y-81832200D02*
X160627400Y-79943288D01*
X160627400Y-79943288D02*
X160627400Y-71727400D01*
X142792200Y-81832200D02*
X158738489Y-81832200D01*
X139700000Y-78740000D02*
X142792200Y-81832200D01*
%TO.N,Net-(J1-Pin_3)*%
X160020000Y-73660000D02*
X160020000Y-74706007D01*
X154940000Y-68580000D02*
X160020000Y-73660000D01*
X160020000Y-79691695D02*
X160020000Y-76200000D01*
X158486895Y-81224800D02*
X160020000Y-79691695D01*
X160020000Y-76200000D02*
X160020000Y-74706007D01*
X144724800Y-81224800D02*
X158486895Y-81224800D01*
X142240000Y-78740000D02*
X144724800Y-81224800D01*
%TO.N,Net-(J1-Pin_6)*%
X119380000Y-68580000D02*
X119380000Y-69850000D01*
X119380000Y-69850000D02*
X124460000Y-74930000D01*
%TO.N,/5V*%
X132080000Y-68580000D02*
X139700000Y-76200000D01*
%TD*%
%TA.AperFunction,Conductor*%
%TO.N,Net-(J1-Pin_4)*%
G36*
X161367539Y-66560185D02*
G01*
X161413294Y-66612989D01*
X161424500Y-66664500D01*
X161424500Y-71244943D01*
X161417403Y-71269111D01*
X161414333Y-71294117D01*
X161407726Y-71302067D01*
X161404815Y-71311982D01*
X161385781Y-71328474D01*
X161369677Y-71347854D01*
X161359820Y-71350970D01*
X161352011Y-71357737D01*
X161327079Y-71361321D01*
X161303057Y-71368917D01*
X161293082Y-71366210D01*
X161282853Y-71367681D01*
X161259939Y-71357216D01*
X161235626Y-71350619D01*
X161223590Y-71340616D01*
X161219297Y-71338656D01*
X161213982Y-71332632D01*
X161208482Y-71328061D01*
X161202417Y-71321347D01*
X161174000Y-71278817D01*
X161075983Y-71180800D01*
X161075979Y-71180797D01*
X158841126Y-68945944D01*
X158807641Y-68884621D01*
X158806334Y-68838865D01*
X158830500Y-68686286D01*
X158830500Y-68473713D01*
X158807738Y-68330000D01*
X158797246Y-68263757D01*
X158731557Y-68061588D01*
X158635051Y-67872184D01*
X158635049Y-67872181D01*
X158635048Y-67872179D01*
X158510109Y-67700213D01*
X158359786Y-67549890D01*
X158187820Y-67424951D01*
X157998414Y-67328444D01*
X157998413Y-67328443D01*
X157998412Y-67328443D01*
X157796243Y-67262754D01*
X157796241Y-67262753D01*
X157796240Y-67262753D01*
X157634957Y-67237208D01*
X157586287Y-67229500D01*
X157373713Y-67229500D01*
X157325042Y-67237208D01*
X157163760Y-67262753D01*
X156961585Y-67328444D01*
X156772179Y-67424951D01*
X156600213Y-67549890D01*
X156449890Y-67700213D01*
X156324949Y-67872182D01*
X156320484Y-67880946D01*
X156272509Y-67931742D01*
X156204688Y-67948536D01*
X156138553Y-67925998D01*
X156099516Y-67880946D01*
X156095050Y-67872182D01*
X155970109Y-67700213D01*
X155819786Y-67549890D01*
X155647820Y-67424951D01*
X155458414Y-67328444D01*
X155458413Y-67328443D01*
X155458412Y-67328443D01*
X155256243Y-67262754D01*
X155256241Y-67262753D01*
X155256240Y-67262753D01*
X155094957Y-67237208D01*
X155046287Y-67229500D01*
X154833713Y-67229500D01*
X154785042Y-67237208D01*
X154623760Y-67262753D01*
X154421585Y-67328444D01*
X154232179Y-67424951D01*
X154060213Y-67549890D01*
X153909890Y-67700213D01*
X153784949Y-67872182D01*
X153780484Y-67880946D01*
X153732509Y-67931742D01*
X153664688Y-67948536D01*
X153598553Y-67925998D01*
X153559516Y-67880946D01*
X153555050Y-67872182D01*
X153430109Y-67700213D01*
X153279786Y-67549890D01*
X153107820Y-67424951D01*
X152918414Y-67328444D01*
X152918413Y-67328443D01*
X152918412Y-67328443D01*
X152716243Y-67262754D01*
X152716241Y-67262753D01*
X152716240Y-67262753D01*
X152554957Y-67237208D01*
X152506287Y-67229500D01*
X152293713Y-67229500D01*
X152245042Y-67237208D01*
X152083760Y-67262753D01*
X151881585Y-67328444D01*
X151692179Y-67424951D01*
X151520213Y-67549890D01*
X151369890Y-67700213D01*
X151244949Y-67872182D01*
X151240484Y-67880946D01*
X151192509Y-67931742D01*
X151124688Y-67948536D01*
X151058553Y-67925998D01*
X151019516Y-67880946D01*
X151015050Y-67872182D01*
X150890109Y-67700213D01*
X150739786Y-67549890D01*
X150567820Y-67424951D01*
X150378414Y-67328444D01*
X150378413Y-67328443D01*
X150378412Y-67328443D01*
X150176243Y-67262754D01*
X150176241Y-67262753D01*
X150176240Y-67262753D01*
X150014957Y-67237208D01*
X149966287Y-67229500D01*
X149753713Y-67229500D01*
X149705042Y-67237208D01*
X149543760Y-67262753D01*
X149341585Y-67328444D01*
X149152179Y-67424951D01*
X148980213Y-67549890D01*
X148829890Y-67700213D01*
X148704949Y-67872182D01*
X148700484Y-67880946D01*
X148652509Y-67931742D01*
X148584688Y-67948536D01*
X148518553Y-67925998D01*
X148479516Y-67880946D01*
X148475050Y-67872182D01*
X148350109Y-67700213D01*
X148199786Y-67549890D01*
X148027820Y-67424951D01*
X147838414Y-67328444D01*
X147838413Y-67328443D01*
X147838412Y-67328443D01*
X147636243Y-67262754D01*
X147636241Y-67262753D01*
X147636240Y-67262753D01*
X147474957Y-67237208D01*
X147426287Y-67229500D01*
X147213713Y-67229500D01*
X147165042Y-67237208D01*
X147003760Y-67262753D01*
X146801585Y-67328444D01*
X146612179Y-67424951D01*
X146440213Y-67549890D01*
X146289890Y-67700213D01*
X146164949Y-67872182D01*
X146160484Y-67880946D01*
X146112509Y-67931742D01*
X146044688Y-67948536D01*
X145978553Y-67925998D01*
X145939516Y-67880946D01*
X145935050Y-67872182D01*
X145810109Y-67700213D01*
X145659786Y-67549890D01*
X145487820Y-67424951D01*
X145298414Y-67328444D01*
X145298413Y-67328443D01*
X145298412Y-67328443D01*
X145096243Y-67262754D01*
X145096241Y-67262753D01*
X145096240Y-67262753D01*
X144934957Y-67237208D01*
X144886287Y-67229500D01*
X144673713Y-67229500D01*
X144625042Y-67237208D01*
X144463760Y-67262753D01*
X144261585Y-67328444D01*
X144072179Y-67424951D01*
X143900213Y-67549890D01*
X143749890Y-67700213D01*
X143624949Y-67872182D01*
X143620484Y-67880946D01*
X143572509Y-67931742D01*
X143504688Y-67948536D01*
X143438553Y-67925998D01*
X143399516Y-67880946D01*
X143395050Y-67872182D01*
X143270109Y-67700213D01*
X143119786Y-67549890D01*
X142947820Y-67424951D01*
X142758414Y-67328444D01*
X142758413Y-67328443D01*
X142758412Y-67328443D01*
X142556243Y-67262754D01*
X142556241Y-67262753D01*
X142556240Y-67262753D01*
X142394957Y-67237208D01*
X142346287Y-67229500D01*
X142133713Y-67229500D01*
X142085042Y-67237208D01*
X141923760Y-67262753D01*
X141721585Y-67328444D01*
X141532179Y-67424951D01*
X141360213Y-67549890D01*
X141209890Y-67700213D01*
X141084949Y-67872182D01*
X141080484Y-67880946D01*
X141032509Y-67931742D01*
X140964688Y-67948536D01*
X140898553Y-67925998D01*
X140859516Y-67880946D01*
X140855050Y-67872182D01*
X140730109Y-67700213D01*
X140579786Y-67549890D01*
X140407820Y-67424951D01*
X140218414Y-67328444D01*
X140218413Y-67328443D01*
X140218412Y-67328443D01*
X140016243Y-67262754D01*
X140016241Y-67262753D01*
X140016240Y-67262753D01*
X139854957Y-67237208D01*
X139806287Y-67229500D01*
X139593713Y-67229500D01*
X139545042Y-67237208D01*
X139383760Y-67262753D01*
X139181585Y-67328444D01*
X138992179Y-67424951D01*
X138820213Y-67549890D01*
X138669890Y-67700213D01*
X138544949Y-67872182D01*
X138540484Y-67880946D01*
X138492509Y-67931742D01*
X138424688Y-67948536D01*
X138358553Y-67925998D01*
X138319516Y-67880946D01*
X138315050Y-67872182D01*
X138190109Y-67700213D01*
X138039786Y-67549890D01*
X137867820Y-67424951D01*
X137678414Y-67328444D01*
X137678413Y-67328443D01*
X137678412Y-67328443D01*
X137476243Y-67262754D01*
X137476241Y-67262753D01*
X137476240Y-67262753D01*
X137314957Y-67237208D01*
X137266287Y-67229500D01*
X137053713Y-67229500D01*
X137005042Y-67237208D01*
X136843760Y-67262753D01*
X136641585Y-67328444D01*
X136452179Y-67424951D01*
X136280213Y-67549890D01*
X136129890Y-67700213D01*
X136004949Y-67872182D01*
X136000484Y-67880946D01*
X135952509Y-67931742D01*
X135884688Y-67948536D01*
X135818553Y-67925998D01*
X135779516Y-67880946D01*
X135775050Y-67872182D01*
X135650109Y-67700213D01*
X135499786Y-67549890D01*
X135327820Y-67424951D01*
X135138414Y-67328444D01*
X135138413Y-67328443D01*
X135138412Y-67328443D01*
X134936243Y-67262754D01*
X134936241Y-67262753D01*
X134936240Y-67262753D01*
X134774957Y-67237208D01*
X134726287Y-67229500D01*
X134513713Y-67229500D01*
X134465042Y-67237208D01*
X134303760Y-67262753D01*
X134101585Y-67328444D01*
X133912179Y-67424951D01*
X133740213Y-67549890D01*
X133589890Y-67700213D01*
X133464949Y-67872182D01*
X133460484Y-67880946D01*
X133412509Y-67931742D01*
X133344688Y-67948536D01*
X133278553Y-67925998D01*
X133239516Y-67880946D01*
X133235050Y-67872182D01*
X133110109Y-67700213D01*
X132959786Y-67549890D01*
X132787820Y-67424951D01*
X132598414Y-67328444D01*
X132598413Y-67328443D01*
X132598412Y-67328443D01*
X132396243Y-67262754D01*
X132396241Y-67262753D01*
X132396240Y-67262753D01*
X132234957Y-67237208D01*
X132186287Y-67229500D01*
X131973713Y-67229500D01*
X131925042Y-67237208D01*
X131763760Y-67262753D01*
X131561585Y-67328444D01*
X131372179Y-67424951D01*
X131200213Y-67549890D01*
X131049890Y-67700213D01*
X130924949Y-67872182D01*
X130920484Y-67880946D01*
X130872509Y-67931742D01*
X130804688Y-67948536D01*
X130738553Y-67925998D01*
X130699516Y-67880946D01*
X130695050Y-67872182D01*
X130570109Y-67700213D01*
X130419786Y-67549890D01*
X130247820Y-67424951D01*
X130058414Y-67328444D01*
X130058413Y-67328443D01*
X130058412Y-67328443D01*
X129856243Y-67262754D01*
X129856241Y-67262753D01*
X129856240Y-67262753D01*
X129694957Y-67237208D01*
X129646287Y-67229500D01*
X129433713Y-67229500D01*
X129385042Y-67237208D01*
X129223760Y-67262753D01*
X129021585Y-67328444D01*
X128832179Y-67424951D01*
X128660213Y-67549890D01*
X128509890Y-67700213D01*
X128384949Y-67872182D01*
X128380484Y-67880946D01*
X128332509Y-67931742D01*
X128264688Y-67948536D01*
X128198553Y-67925998D01*
X128159516Y-67880946D01*
X128155050Y-67872182D01*
X128030109Y-67700213D01*
X127879786Y-67549890D01*
X127707820Y-67424951D01*
X127518414Y-67328444D01*
X127518413Y-67328443D01*
X127518412Y-67328443D01*
X127316243Y-67262754D01*
X127316241Y-67262753D01*
X127316240Y-67262753D01*
X127154957Y-67237208D01*
X127106287Y-67229500D01*
X126893713Y-67229500D01*
X126845042Y-67237208D01*
X126683760Y-67262753D01*
X126481585Y-67328444D01*
X126292179Y-67424951D01*
X126120213Y-67549890D01*
X125969890Y-67700213D01*
X125844949Y-67872182D01*
X125840484Y-67880946D01*
X125792509Y-67931742D01*
X125724688Y-67948536D01*
X125658553Y-67925998D01*
X125619516Y-67880946D01*
X125615050Y-67872182D01*
X125490109Y-67700213D01*
X125339786Y-67549890D01*
X125167820Y-67424951D01*
X124978414Y-67328444D01*
X124978413Y-67328443D01*
X124978412Y-67328443D01*
X124776243Y-67262754D01*
X124776241Y-67262753D01*
X124776240Y-67262753D01*
X124614957Y-67237208D01*
X124566287Y-67229500D01*
X124353713Y-67229500D01*
X124305042Y-67237208D01*
X124143760Y-67262753D01*
X123941585Y-67328444D01*
X123752179Y-67424951D01*
X123580213Y-67549890D01*
X123429890Y-67700213D01*
X123304949Y-67872182D01*
X123300484Y-67880946D01*
X123252509Y-67931742D01*
X123184688Y-67948536D01*
X123118553Y-67925998D01*
X123079516Y-67880946D01*
X123075050Y-67872182D01*
X122950109Y-67700213D01*
X122799786Y-67549890D01*
X122627820Y-67424951D01*
X122438414Y-67328444D01*
X122438413Y-67328443D01*
X122438412Y-67328443D01*
X122236243Y-67262754D01*
X122236241Y-67262753D01*
X122236240Y-67262753D01*
X122074957Y-67237208D01*
X122026287Y-67229500D01*
X121813713Y-67229500D01*
X121765042Y-67237208D01*
X121603760Y-67262753D01*
X121401585Y-67328444D01*
X121212179Y-67424951D01*
X121040213Y-67549890D01*
X120889890Y-67700213D01*
X120764949Y-67872182D01*
X120760484Y-67880946D01*
X120712509Y-67931742D01*
X120644688Y-67948536D01*
X120578553Y-67925998D01*
X120539516Y-67880946D01*
X120535050Y-67872182D01*
X120410109Y-67700213D01*
X120259786Y-67549890D01*
X120087820Y-67424951D01*
X119898414Y-67328444D01*
X119898413Y-67328443D01*
X119898412Y-67328443D01*
X119696243Y-67262754D01*
X119696241Y-67262753D01*
X119696240Y-67262753D01*
X119534957Y-67237208D01*
X119486287Y-67229500D01*
X119273713Y-67229500D01*
X119225042Y-67237208D01*
X119063760Y-67262753D01*
X118861585Y-67328444D01*
X118672179Y-67424951D01*
X118500213Y-67549890D01*
X118349890Y-67700213D01*
X118224949Y-67872182D01*
X118220484Y-67880946D01*
X118172509Y-67931742D01*
X118104688Y-67948536D01*
X118038553Y-67925998D01*
X117999516Y-67880946D01*
X117995050Y-67872182D01*
X117870109Y-67700213D01*
X117719786Y-67549890D01*
X117547820Y-67424951D01*
X117358414Y-67328444D01*
X117358413Y-67328443D01*
X117358412Y-67328443D01*
X117156243Y-67262754D01*
X117156241Y-67262753D01*
X117156240Y-67262753D01*
X116994957Y-67237208D01*
X116946287Y-67229500D01*
X116733713Y-67229500D01*
X116685042Y-67237208D01*
X116523760Y-67262753D01*
X116321585Y-67328444D01*
X116132179Y-67424951D01*
X115960213Y-67549890D01*
X115809890Y-67700213D01*
X115684949Y-67872182D01*
X115680484Y-67880946D01*
X115632509Y-67931742D01*
X115564688Y-67948536D01*
X115498553Y-67925998D01*
X115459516Y-67880946D01*
X115455050Y-67872182D01*
X115330109Y-67700213D01*
X115179786Y-67549890D01*
X115007820Y-67424951D01*
X114818414Y-67328444D01*
X114818413Y-67328443D01*
X114818412Y-67328443D01*
X114616243Y-67262754D01*
X114616241Y-67262753D01*
X114616240Y-67262753D01*
X114454957Y-67237208D01*
X114406287Y-67229500D01*
X114193713Y-67229500D01*
X114145042Y-67237208D01*
X113983760Y-67262753D01*
X113781585Y-67328444D01*
X113592179Y-67424951D01*
X113420213Y-67549890D01*
X113269890Y-67700213D01*
X113144949Y-67872182D01*
X113140202Y-67881499D01*
X113092227Y-67932293D01*
X113024405Y-67949087D01*
X112958271Y-67926548D01*
X112919234Y-67881495D01*
X112914626Y-67872452D01*
X112875270Y-67818282D01*
X112875269Y-67818282D01*
X112242962Y-68450590D01*
X112225925Y-68387007D01*
X112160099Y-68272993D01*
X112067007Y-68179901D01*
X111952993Y-68114075D01*
X111889409Y-68097037D01*
X112521716Y-67464728D01*
X112467550Y-67425375D01*
X112278217Y-67328904D01*
X112076129Y-67263242D01*
X111866246Y-67230000D01*
X111653754Y-67230000D01*
X111443872Y-67263242D01*
X111443869Y-67263242D01*
X111241782Y-67328904D01*
X111052439Y-67425380D01*
X110998282Y-67464727D01*
X110998282Y-67464728D01*
X111630591Y-68097037D01*
X111567007Y-68114075D01*
X111452993Y-68179901D01*
X111359901Y-68272993D01*
X111294075Y-68387007D01*
X111277037Y-68450591D01*
X110607642Y-67781196D01*
X110574319Y-67720609D01*
X110535527Y-67547364D01*
X110513354Y-67487913D01*
X110513350Y-67487906D01*
X110427190Y-67372812D01*
X110427187Y-67372809D01*
X110312093Y-67286649D01*
X110312086Y-67286645D01*
X110177379Y-67236403D01*
X110177372Y-67236401D01*
X110117844Y-67230000D01*
X109470000Y-67230000D01*
X109470000Y-68146988D01*
X109412993Y-68114075D01*
X109285826Y-68080000D01*
X109154174Y-68080000D01*
X109027007Y-68114075D01*
X108970000Y-68146988D01*
X108970000Y-67230000D01*
X108322155Y-67230000D01*
X108262627Y-67236401D01*
X108262620Y-67236403D01*
X108127913Y-67286645D01*
X108127906Y-67286649D01*
X108012812Y-67372809D01*
X108012809Y-67372812D01*
X107926649Y-67487906D01*
X107926645Y-67487913D01*
X107876403Y-67622620D01*
X107876401Y-67622627D01*
X107870000Y-67682155D01*
X107870000Y-68330000D01*
X108786988Y-68330000D01*
X108754075Y-68387007D01*
X108720000Y-68514174D01*
X108720000Y-68645826D01*
X108754075Y-68772993D01*
X108786988Y-68830000D01*
X107870000Y-68830000D01*
X107870000Y-69477844D01*
X107876401Y-69537372D01*
X107876403Y-69537379D01*
X107926645Y-69672086D01*
X107926649Y-69672093D01*
X108012809Y-69787187D01*
X108012812Y-69787190D01*
X108127906Y-69873350D01*
X108127913Y-69873354D01*
X108262620Y-69923596D01*
X108262627Y-69923598D01*
X108322155Y-69929999D01*
X108322172Y-69930000D01*
X108970000Y-69930000D01*
X108970000Y-69013012D01*
X109027007Y-69045925D01*
X109154174Y-69080000D01*
X109285826Y-69080000D01*
X109412993Y-69045925D01*
X109470000Y-69013012D01*
X109470000Y-69930000D01*
X110117828Y-69930000D01*
X110117844Y-69929999D01*
X110177372Y-69923598D01*
X110177379Y-69923596D01*
X110312086Y-69873354D01*
X110312093Y-69873350D01*
X110427187Y-69787190D01*
X110427190Y-69787187D01*
X110513350Y-69672093D01*
X110513354Y-69672086D01*
X110535529Y-69612632D01*
X110574319Y-69439390D01*
X110574682Y-69438734D01*
X110574642Y-69437984D01*
X110607642Y-69378802D01*
X111277037Y-68709408D01*
X111294075Y-68772993D01*
X111359901Y-68887007D01*
X111452993Y-68980099D01*
X111567007Y-69045925D01*
X111630590Y-69062962D01*
X110998282Y-69695269D01*
X110998282Y-69695270D01*
X111052449Y-69734624D01*
X111241782Y-69831095D01*
X111443870Y-69896757D01*
X111653754Y-69930000D01*
X111866246Y-69930000D01*
X112076127Y-69896757D01*
X112076130Y-69896757D01*
X112278217Y-69831095D01*
X112467554Y-69734622D01*
X112521716Y-69695270D01*
X112521717Y-69695270D01*
X111889408Y-69062962D01*
X111952993Y-69045925D01*
X112067007Y-68980099D01*
X112160099Y-68887007D01*
X112225925Y-68772993D01*
X112242962Y-68709409D01*
X112875270Y-69341717D01*
X112875270Y-69341716D01*
X112914622Y-69287555D01*
X112919232Y-69278507D01*
X112967205Y-69227709D01*
X113035025Y-69210912D01*
X113101161Y-69233447D01*
X113140204Y-69278504D01*
X113144949Y-69287817D01*
X113269890Y-69459786D01*
X113420213Y-69610109D01*
X113592179Y-69735048D01*
X113592181Y-69735049D01*
X113592184Y-69735051D01*
X113781588Y-69831557D01*
X113983757Y-69897246D01*
X114193713Y-69930500D01*
X114193714Y-69930500D01*
X114406286Y-69930500D01*
X114406287Y-69930500D01*
X114616243Y-69897246D01*
X114818412Y-69831557D01*
X115007816Y-69735051D01*
X115057829Y-69698715D01*
X115179786Y-69610109D01*
X115179788Y-69610106D01*
X115179792Y-69610104D01*
X115330104Y-69459792D01*
X115330106Y-69459788D01*
X115330109Y-69459786D01*
X115455048Y-69287820D01*
X115455050Y-69287817D01*
X115455051Y-69287816D01*
X115459514Y-69279054D01*
X115507488Y-69228259D01*
X115575308Y-69211463D01*
X115641444Y-69233999D01*
X115680486Y-69279056D01*
X115684951Y-69287820D01*
X115809890Y-69459786D01*
X115960213Y-69610109D01*
X116132179Y-69735048D01*
X116132181Y-69735049D01*
X116132184Y-69735051D01*
X116321588Y-69831557D01*
X116523757Y-69897246D01*
X116733713Y-69930500D01*
X116733714Y-69930500D01*
X116946286Y-69930500D01*
X116946287Y-69930500D01*
X117156243Y-69897246D01*
X117358412Y-69831557D01*
X117547816Y-69735051D01*
X117597829Y-69698715D01*
X117719786Y-69610109D01*
X117719788Y-69610106D01*
X117719792Y-69610104D01*
X117870104Y-69459792D01*
X117870106Y-69459788D01*
X117870109Y-69459786D01*
X117995048Y-69287820D01*
X117995050Y-69287817D01*
X117995051Y-69287816D01*
X117999514Y-69279054D01*
X118047488Y-69228259D01*
X118115308Y-69211463D01*
X118181444Y-69233999D01*
X118220486Y-69279056D01*
X118224951Y-69287820D01*
X118349890Y-69459786D01*
X118349896Y-69459792D01*
X118500208Y-69610104D01*
X118625185Y-69700904D01*
X118625683Y-69701551D01*
X118626451Y-69701836D01*
X118646962Y-69729146D01*
X118667850Y-69756233D01*
X118668083Y-69757267D01*
X118668411Y-69757703D01*
X118669341Y-69762834D01*
X118675969Y-69792178D01*
X118676299Y-69796690D01*
X118676299Y-69919308D01*
X118688984Y-69983076D01*
X118690477Y-69990584D01*
X118690478Y-69990591D01*
X118703341Y-70055256D01*
X118703344Y-70055266D01*
X118756386Y-70183323D01*
X118833401Y-70298585D01*
X118935736Y-70400920D01*
X118935758Y-70400940D01*
X123667127Y-75132309D01*
X123694007Y-75172537D01*
X123750604Y-75309176D01*
X123750609Y-75309185D01*
X123838210Y-75440288D01*
X123838213Y-75440292D01*
X123949707Y-75551786D01*
X123949711Y-75551789D01*
X124080814Y-75639390D01*
X124080827Y-75639397D01*
X124182687Y-75681588D01*
X124226503Y-75699737D01*
X124381153Y-75730499D01*
X124381156Y-75730500D01*
X124381158Y-75730500D01*
X124538844Y-75730500D01*
X124538845Y-75730499D01*
X124693497Y-75699737D01*
X124839179Y-75639394D01*
X124970289Y-75551789D01*
X125081789Y-75440289D01*
X125169394Y-75309179D01*
X125229737Y-75163497D01*
X125260500Y-75008842D01*
X125260500Y-74851158D01*
X125260500Y-74851155D01*
X125260499Y-74851153D01*
X125247734Y-74786978D01*
X125229737Y-74696503D01*
X125172779Y-74558992D01*
X125169397Y-74550827D01*
X125169390Y-74550814D01*
X125081789Y-74419711D01*
X125081786Y-74419707D01*
X124970292Y-74308213D01*
X124970288Y-74308210D01*
X124839185Y-74220609D01*
X124839176Y-74220604D01*
X124702537Y-74164007D01*
X124662309Y-74137127D01*
X120285220Y-69760038D01*
X120251735Y-69698715D01*
X120256719Y-69629023D01*
X120285220Y-69584676D01*
X120332524Y-69537372D01*
X120410104Y-69459792D01*
X120410106Y-69459788D01*
X120410109Y-69459786D01*
X120535048Y-69287820D01*
X120535050Y-69287817D01*
X120535051Y-69287816D01*
X120539514Y-69279054D01*
X120587488Y-69228259D01*
X120655308Y-69211463D01*
X120721444Y-69233999D01*
X120760486Y-69279056D01*
X120764951Y-69287820D01*
X120889890Y-69459786D01*
X121040213Y-69610109D01*
X121212179Y-69735048D01*
X121212181Y-69735049D01*
X121212184Y-69735051D01*
X121401588Y-69831557D01*
X121603757Y-69897246D01*
X121813713Y-69930500D01*
X121813714Y-69930500D01*
X122026286Y-69930500D01*
X122026287Y-69930500D01*
X122236243Y-69897246D01*
X122438412Y-69831557D01*
X122627816Y-69735051D01*
X122677829Y-69698715D01*
X122799786Y-69610109D01*
X122799788Y-69610106D01*
X122799792Y-69610104D01*
X122950104Y-69459792D01*
X122950106Y-69459788D01*
X122950109Y-69459786D01*
X123075048Y-69287820D01*
X123075050Y-69287817D01*
X123075051Y-69287816D01*
X123079514Y-69279054D01*
X123127488Y-69228259D01*
X123195308Y-69211463D01*
X123261444Y-69233999D01*
X123300486Y-69279056D01*
X123304951Y-69287820D01*
X123429890Y-69459786D01*
X123580213Y-69610109D01*
X123752179Y-69735048D01*
X123752181Y-69735049D01*
X123752184Y-69735051D01*
X123941588Y-69831557D01*
X124143757Y-69897246D01*
X124353713Y-69930500D01*
X124353714Y-69930500D01*
X124566286Y-69930500D01*
X124566287Y-69930500D01*
X124776243Y-69897246D01*
X124978412Y-69831557D01*
X125167816Y-69735051D01*
X125217829Y-69698715D01*
X125339786Y-69610109D01*
X125339788Y-69610106D01*
X125339792Y-69610104D01*
X125490104Y-69459792D01*
X125490106Y-69459788D01*
X125490109Y-69459786D01*
X125615048Y-69287820D01*
X125615050Y-69287817D01*
X125615051Y-69287816D01*
X125619514Y-69279054D01*
X125667488Y-69228259D01*
X125735308Y-69211463D01*
X125801444Y-69233999D01*
X125840486Y-69279056D01*
X125844951Y-69287820D01*
X125969890Y-69459786D01*
X126120213Y-69610109D01*
X126292179Y-69735048D01*
X126292181Y-69735049D01*
X126292184Y-69735051D01*
X126481588Y-69831557D01*
X126683757Y-69897246D01*
X126893713Y-69930500D01*
X126893714Y-69930500D01*
X127106286Y-69930500D01*
X127106287Y-69930500D01*
X127316243Y-69897246D01*
X127518412Y-69831557D01*
X127707816Y-69735051D01*
X127757829Y-69698715D01*
X127879786Y-69610109D01*
X127879788Y-69610106D01*
X127879792Y-69610104D01*
X128030104Y-69459792D01*
X128030106Y-69459788D01*
X128030109Y-69459786D01*
X128155048Y-69287820D01*
X128155050Y-69287817D01*
X128155051Y-69287816D01*
X128159514Y-69279054D01*
X128207488Y-69228259D01*
X128275308Y-69211463D01*
X128341444Y-69233999D01*
X128380486Y-69279056D01*
X128384951Y-69287820D01*
X128509890Y-69459786D01*
X128660213Y-69610109D01*
X128832179Y-69735048D01*
X128832181Y-69735049D01*
X128832184Y-69735051D01*
X129021588Y-69831557D01*
X129223757Y-69897246D01*
X129433713Y-69930500D01*
X129433714Y-69930500D01*
X129646286Y-69930500D01*
X129646287Y-69930500D01*
X129856243Y-69897246D01*
X130058412Y-69831557D01*
X130247816Y-69735051D01*
X130297829Y-69698715D01*
X130419786Y-69610109D01*
X130419788Y-69610106D01*
X130419792Y-69610104D01*
X130570104Y-69459792D01*
X130570106Y-69459788D01*
X130570109Y-69459786D01*
X130695048Y-69287820D01*
X130695050Y-69287817D01*
X130695051Y-69287816D01*
X130699514Y-69279054D01*
X130747488Y-69228259D01*
X130815308Y-69211463D01*
X130881444Y-69233999D01*
X130920486Y-69279056D01*
X130924951Y-69287820D01*
X131049890Y-69459786D01*
X131200213Y-69610109D01*
X131372179Y-69735048D01*
X131372181Y-69735049D01*
X131372184Y-69735051D01*
X131561588Y-69831557D01*
X131763757Y-69897246D01*
X131973713Y-69930500D01*
X131973714Y-69930500D01*
X132186286Y-69930500D01*
X132186287Y-69930500D01*
X132282325Y-69915289D01*
X132338865Y-69906334D01*
X132408159Y-69915289D01*
X132445944Y-69941126D01*
X138338873Y-75834055D01*
X138372358Y-75895378D01*
X138373666Y-75941133D01*
X138349500Y-76093713D01*
X138349500Y-76093718D01*
X138349500Y-76306286D01*
X138382753Y-76516239D01*
X138448444Y-76718414D01*
X138544951Y-76907820D01*
X138669890Y-77079786D01*
X138783430Y-77193326D01*
X138816915Y-77254649D01*
X138811931Y-77324341D01*
X138770059Y-77380274D01*
X138739083Y-77397189D01*
X138607669Y-77446203D01*
X138607664Y-77446206D01*
X138492455Y-77532452D01*
X138492452Y-77532455D01*
X138406206Y-77647664D01*
X138406202Y-77647671D01*
X138355908Y-77782517D01*
X138349501Y-77842116D01*
X138349500Y-77842135D01*
X138349500Y-79637870D01*
X138349501Y-79637876D01*
X138355908Y-79697483D01*
X138406202Y-79832328D01*
X138406206Y-79832335D01*
X138492452Y-79947544D01*
X138492455Y-79947547D01*
X138607664Y-80033793D01*
X138607671Y-80033797D01*
X138742517Y-80084091D01*
X138742516Y-80084091D01*
X138749444Y-80084835D01*
X138802127Y-80090500D01*
X140003955Y-80090499D01*
X140070994Y-80110184D01*
X140091636Y-80126818D01*
X141802637Y-81837819D01*
X141836122Y-81899142D01*
X141831138Y-81968834D01*
X141789266Y-82024767D01*
X141723802Y-82049184D01*
X141714956Y-82049500D01*
X106669500Y-82049500D01*
X106602461Y-82029815D01*
X106556706Y-81977011D01*
X106545500Y-81925500D01*
X106545500Y-66664500D01*
X106565185Y-66597461D01*
X106617989Y-66551706D01*
X106669500Y-66540500D01*
X161300500Y-66540500D01*
X161367539Y-66560185D01*
G37*
%TD.AperFunction*%
%TA.AperFunction,Conductor*%
G36*
X143355270Y-76961717D02*
G01*
X143355270Y-76961716D01*
X143394622Y-76907555D01*
X143399232Y-76898507D01*
X143447205Y-76847709D01*
X143515025Y-76830912D01*
X143581161Y-76853447D01*
X143620204Y-76898504D01*
X143624949Y-76907817D01*
X143749890Y-77079786D01*
X143900213Y-77230109D01*
X144072182Y-77355050D01*
X144080946Y-77359516D01*
X144131742Y-77407491D01*
X144148536Y-77475312D01*
X144125998Y-77541447D01*
X144080946Y-77580484D01*
X144072182Y-77584949D01*
X143900213Y-77709890D01*
X143749890Y-77860213D01*
X143624949Y-78032182D01*
X143620484Y-78040946D01*
X143572509Y-78091742D01*
X143504688Y-78108536D01*
X143438553Y-78085998D01*
X143399516Y-78040946D01*
X143395050Y-78032182D01*
X143270109Y-77860213D01*
X143119786Y-77709890D01*
X142947817Y-77584949D01*
X142938504Y-77580204D01*
X142887707Y-77532230D01*
X142870912Y-77464409D01*
X142893449Y-77398274D01*
X142938507Y-77359232D01*
X142947555Y-77354622D01*
X143001716Y-77315270D01*
X143001717Y-77315270D01*
X142369408Y-76682962D01*
X142432993Y-76665925D01*
X142547007Y-76600099D01*
X142640099Y-76507007D01*
X142705925Y-76392993D01*
X142722962Y-76329408D01*
X143355270Y-76961717D01*
G37*
%TD.AperFunction*%
%TA.AperFunction,Conductor*%
G36*
X141774075Y-76392993D02*
G01*
X141839901Y-76507007D01*
X141932993Y-76600099D01*
X142047007Y-76665925D01*
X142110590Y-76682962D01*
X141478282Y-77315269D01*
X141478282Y-77315270D01*
X141532452Y-77354626D01*
X141532451Y-77354626D01*
X141541495Y-77359234D01*
X141592292Y-77407208D01*
X141609087Y-77475029D01*
X141586550Y-77541164D01*
X141541499Y-77580202D01*
X141532182Y-77584949D01*
X141360215Y-77709889D01*
X141246673Y-77823431D01*
X141185350Y-77856915D01*
X141115658Y-77851931D01*
X141059725Y-77810059D01*
X141042810Y-77779082D01*
X140993797Y-77647671D01*
X140993793Y-77647664D01*
X140907547Y-77532455D01*
X140907544Y-77532452D01*
X140792335Y-77446206D01*
X140792328Y-77446202D01*
X140660917Y-77397189D01*
X140604983Y-77355318D01*
X140580566Y-77289853D01*
X140595418Y-77221580D01*
X140616563Y-77193332D01*
X140730104Y-77079792D01*
X140855051Y-76907816D01*
X140859793Y-76898508D01*
X140907763Y-76847711D01*
X140975583Y-76830911D01*
X141041719Y-76853445D01*
X141080763Y-76898500D01*
X141085373Y-76907547D01*
X141124728Y-76961716D01*
X141757037Y-76329408D01*
X141774075Y-76392993D01*
G37*
%TD.AperFunction*%
%TA.AperFunction,Conductor*%
G36*
X135961444Y-69233999D02*
G01*
X136000486Y-69279056D01*
X136004951Y-69287820D01*
X136129890Y-69459786D01*
X136280213Y-69610109D01*
X136452179Y-69735048D01*
X136452181Y-69735049D01*
X136452184Y-69735051D01*
X136641588Y-69831557D01*
X136843757Y-69897246D01*
X137053713Y-69930500D01*
X137053714Y-69930500D01*
X137266286Y-69930500D01*
X137266287Y-69930500D01*
X137476243Y-69897246D01*
X137541843Y-69875930D01*
X137611681Y-69873936D01*
X137671514Y-69910016D01*
X137702343Y-69972716D01*
X137694720Y-70041314D01*
X137660264Y-70124498D01*
X137660261Y-70124510D01*
X137629500Y-70279153D01*
X137629500Y-70436846D01*
X137660261Y-70591489D01*
X137660264Y-70591501D01*
X137720602Y-70737172D01*
X137720609Y-70737185D01*
X137808210Y-70868288D01*
X137808213Y-70868292D01*
X137919707Y-70979786D01*
X137919711Y-70979789D01*
X138050814Y-71067390D01*
X138050827Y-71067397D01*
X138196498Y-71127735D01*
X138196503Y-71127737D01*
X138351153Y-71158499D01*
X138351156Y-71158500D01*
X138351158Y-71158500D01*
X138508844Y-71158500D01*
X138508845Y-71158499D01*
X138663497Y-71127737D01*
X138809179Y-71067394D01*
X138809185Y-71067390D01*
X138848684Y-71040998D01*
X138915361Y-71020120D01*
X138917575Y-71020100D01*
X140680500Y-71020100D01*
X140747539Y-71039785D01*
X140793294Y-71092589D01*
X140804500Y-71144100D01*
X140804500Y-71198846D01*
X140835261Y-71353489D01*
X140835264Y-71353501D01*
X140895602Y-71499172D01*
X140895609Y-71499185D01*
X140983210Y-71630288D01*
X140983213Y-71630292D01*
X141094707Y-71741786D01*
X141094711Y-71741789D01*
X141225814Y-71829390D01*
X141225827Y-71829397D01*
X141371498Y-71889735D01*
X141371503Y-71889737D01*
X141517903Y-71918858D01*
X141526153Y-71920499D01*
X141526156Y-71920500D01*
X141526158Y-71920500D01*
X141683844Y-71920500D01*
X141683845Y-71920499D01*
X141838497Y-71889737D01*
X141984179Y-71829394D01*
X142044037Y-71789397D01*
X142110714Y-71768520D01*
X142112928Y-71768500D01*
X142620088Y-71768500D01*
X142687127Y-71788185D01*
X142732882Y-71840989D01*
X142738747Y-71856500D01*
X142740262Y-71861496D01*
X142800602Y-72007172D01*
X142800609Y-72007185D01*
X142888210Y-72138288D01*
X142888213Y-72138292D01*
X142999707Y-72249786D01*
X142999711Y-72249789D01*
X143130814Y-72337390D01*
X143130827Y-72337397D01*
X143238390Y-72381950D01*
X143276503Y-72397737D01*
X143276505Y-72397737D01*
X143276510Y-72397739D01*
X143405630Y-72423422D01*
X143428891Y-72430478D01*
X143431735Y-72431656D01*
X143431736Y-72431656D01*
X143431738Y-72431657D01*
X143431742Y-72431657D01*
X143431743Y-72431658D01*
X143567688Y-72458701D01*
X143567691Y-72458701D01*
X143712422Y-72458701D01*
X143712442Y-72458700D01*
X144305863Y-72458700D01*
X144372902Y-72478385D01*
X144393544Y-72495019D01*
X146710967Y-74812442D01*
X146744452Y-74873765D01*
X146739468Y-74943457D01*
X146697596Y-74999390D01*
X146679582Y-75010607D01*
X146612182Y-75044949D01*
X146440213Y-75169890D01*
X146289890Y-75320213D01*
X146164949Y-75492182D01*
X146160484Y-75500946D01*
X146112509Y-75551742D01*
X146044688Y-75568536D01*
X145978553Y-75545998D01*
X145939516Y-75500946D01*
X145935050Y-75492182D01*
X145810109Y-75320213D01*
X145659786Y-75169890D01*
X145487820Y-75044951D01*
X145298414Y-74948444D01*
X145298413Y-74948443D01*
X145298412Y-74948443D01*
X145096243Y-74882754D01*
X145096241Y-74882753D01*
X145096240Y-74882753D01*
X144934957Y-74857208D01*
X144886287Y-74849500D01*
X144673713Y-74849500D01*
X144625042Y-74857208D01*
X144463760Y-74882753D01*
X144261585Y-74948444D01*
X144072179Y-75044951D01*
X143900213Y-75169890D01*
X143749890Y-75320213D01*
X143624949Y-75492182D01*
X143620202Y-75501499D01*
X143572227Y-75552293D01*
X143504405Y-75569087D01*
X143438271Y-75546548D01*
X143399234Y-75501495D01*
X143394626Y-75492452D01*
X143355270Y-75438282D01*
X143355269Y-75438282D01*
X142722962Y-76070590D01*
X142705925Y-76007007D01*
X142640099Y-75892993D01*
X142547007Y-75799901D01*
X142432993Y-75734075D01*
X142369409Y-75717037D01*
X143001716Y-75084728D01*
X142947550Y-75045375D01*
X142758217Y-74948904D01*
X142556129Y-74883242D01*
X142346246Y-74850000D01*
X142133754Y-74850000D01*
X141923872Y-74883242D01*
X141923869Y-74883242D01*
X141721782Y-74948904D01*
X141532439Y-75045380D01*
X141478282Y-75084727D01*
X141478282Y-75084728D01*
X142110591Y-75717037D01*
X142047007Y-75734075D01*
X141932993Y-75799901D01*
X141839901Y-75892993D01*
X141774075Y-76007007D01*
X141757037Y-76070591D01*
X141124728Y-75438282D01*
X141124727Y-75438282D01*
X141085380Y-75492440D01*
X141085376Y-75492446D01*
X141080760Y-75501505D01*
X141032781Y-75552297D01*
X140964959Y-75569087D01*
X140898826Y-75546543D01*
X140859794Y-75501493D01*
X140855051Y-75492184D01*
X140855049Y-75492181D01*
X140855048Y-75492179D01*
X140730109Y-75320213D01*
X140579786Y-75169890D01*
X140407820Y-75044951D01*
X140218414Y-74948444D01*
X140218413Y-74948443D01*
X140218412Y-74948443D01*
X140016243Y-74882754D01*
X140016241Y-74882753D01*
X140016240Y-74882753D01*
X139854957Y-74857208D01*
X139806287Y-74849500D01*
X139593713Y-74849500D01*
X139497682Y-74864710D01*
X139441133Y-74873666D01*
X139371840Y-74864710D01*
X139334055Y-74838873D01*
X134637363Y-70142181D01*
X134603878Y-70080858D01*
X134608862Y-70011166D01*
X134650734Y-69955233D01*
X134716198Y-69930816D01*
X134725044Y-69930500D01*
X134726286Y-69930500D01*
X134726287Y-69930500D01*
X134936243Y-69897246D01*
X135138412Y-69831557D01*
X135327816Y-69735051D01*
X135377829Y-69698715D01*
X135499786Y-69610109D01*
X135499788Y-69610106D01*
X135499792Y-69610104D01*
X135650104Y-69459792D01*
X135650106Y-69459788D01*
X135650109Y-69459786D01*
X135775048Y-69287820D01*
X135775050Y-69287817D01*
X135775051Y-69287816D01*
X135779514Y-69279054D01*
X135827488Y-69228259D01*
X135895308Y-69211463D01*
X135961444Y-69233999D01*
G37*
%TD.AperFunction*%
%TA.AperFunction,Conductor*%
G36*
X151489195Y-70573385D02*
G01*
X151509837Y-70590019D01*
X155025274Y-74105456D01*
X155025303Y-74105487D01*
X155126414Y-74206598D01*
X155241674Y-74283612D01*
X155269110Y-74294976D01*
X155279182Y-74299148D01*
X155369738Y-74336658D01*
X155505687Y-74363700D01*
X155505690Y-74363701D01*
X155505692Y-74363701D01*
X155650423Y-74363701D01*
X155650443Y-74363700D01*
X156502156Y-74363700D01*
X156569195Y-74383385D01*
X156589837Y-74400019D01*
X156957943Y-74768125D01*
X156991428Y-74829448D01*
X156986444Y-74899140D01*
X156944572Y-74955073D01*
X156926557Y-74966290D01*
X156772185Y-75044947D01*
X156772184Y-75044948D01*
X156600213Y-75169890D01*
X156449890Y-75320213D01*
X156324949Y-75492182D01*
X156320484Y-75500946D01*
X156272509Y-75551742D01*
X156204688Y-75568536D01*
X156138553Y-75545998D01*
X156099516Y-75500946D01*
X156095050Y-75492182D01*
X155970109Y-75320213D01*
X155819786Y-75169890D01*
X155647820Y-75044951D01*
X155458414Y-74948444D01*
X155458413Y-74948443D01*
X155458412Y-74948443D01*
X155256243Y-74882754D01*
X155256241Y-74882753D01*
X155256240Y-74882753D01*
X155094957Y-74857208D01*
X155046287Y-74849500D01*
X154833713Y-74849500D01*
X154794202Y-74855757D01*
X154623759Y-74882753D01*
X154623755Y-74882754D01*
X154551817Y-74906128D01*
X154481976Y-74908123D01*
X154422143Y-74872042D01*
X154391316Y-74809341D01*
X154389500Y-74788197D01*
X154389500Y-74558989D01*
X154389499Y-74558987D01*
X154362458Y-74423045D01*
X154362457Y-74423038D01*
X154352922Y-74400019D01*
X154309413Y-74294976D01*
X154232398Y-74179714D01*
X154131287Y-74078603D01*
X154131256Y-74078574D01*
X150818063Y-70765381D01*
X150784578Y-70704058D01*
X150789562Y-70634366D01*
X150831434Y-70578433D01*
X150896898Y-70554016D01*
X150905744Y-70553700D01*
X151422156Y-70553700D01*
X151489195Y-70573385D01*
G37*
%TD.AperFunction*%
%TA.AperFunction,Conductor*%
G36*
X149239095Y-71180785D02*
G01*
X149259737Y-71197419D01*
X152718281Y-74655963D01*
X152751766Y-74717286D01*
X152746782Y-74786978D01*
X152704910Y-74842911D01*
X152639446Y-74867328D01*
X152611202Y-74866117D01*
X152596832Y-74863841D01*
X152506287Y-74849500D01*
X152293713Y-74849500D01*
X152245042Y-74857208D01*
X152083760Y-74882753D01*
X151881585Y-74948444D01*
X151692182Y-75044950D01*
X151651396Y-75074582D01*
X151585589Y-75098060D01*
X151517535Y-75082233D01*
X151490832Y-75061943D01*
X147801670Y-71372781D01*
X147768185Y-71311458D01*
X147773169Y-71241766D01*
X147815041Y-71185833D01*
X147880505Y-71161416D01*
X147889351Y-71161100D01*
X149172056Y-71161100D01*
X149239095Y-71180785D01*
G37*
%TD.AperFunction*%
%TA.AperFunction,Conductor*%
G36*
X153218623Y-69759947D02*
G01*
X153229189Y-69769371D01*
X156204437Y-72744619D01*
X156215049Y-72764055D01*
X156229550Y-72780789D01*
X156231466Y-72794120D01*
X156237922Y-72805942D01*
X156236342Y-72828028D01*
X156239494Y-72849947D01*
X156233898Y-72862198D01*
X156232938Y-72875634D01*
X156219667Y-72893360D01*
X156210469Y-72913503D01*
X156199137Y-72920785D01*
X156191066Y-72931567D01*
X156170320Y-72939304D01*
X156151691Y-72951277D01*
X156129772Y-72954428D01*
X156125602Y-72955984D01*
X156116756Y-72956300D01*
X155917844Y-72956300D01*
X155850805Y-72936615D01*
X155830163Y-72919981D01*
X152922056Y-70011874D01*
X152888571Y-69950551D01*
X152893555Y-69880859D01*
X152935427Y-69824926D01*
X152953438Y-69813709D01*
X153085215Y-69746566D01*
X153153882Y-69733671D01*
X153218623Y-69759947D01*
G37*
%TD.AperFunction*%
%TD*%
M02*
