M48
; DRILL file {KiCad 9.0.5} date 2026-06-12T21:43:06+0200
; FORMAT={-:-/ absolute / inch / decimal}
; #@! TF.CreationDate,2026-06-12T21:43:06+02:00
; #@! TF.GenerationSoftware,Kicad,Pcbnew,9.0.5
; #@! TF.FileFunction,Plated,1,2,PTH
FMAT,2
INCH
; #@! TA.AperFunction,Plated,PTH,ViaDrill
T1C0.0118
; #@! TA.AperFunction,Plated,PTH,ComponentDrill
T2C0.0394
%
G90
G05
T1
X4.9Y-2.95
X5.05Y-2.85
X5.18Y-2.85
X5.27Y-2.82
X5.45Y-2.77
X5.48Y-2.81
X5.575Y-2.8
X5.65Y-2.82
X5.85Y-2.81
X5.98Y-2.81
X6.09Y-2.81
T2
X4.3Y-2.7
X4.4Y-2.7
X4.5Y-2.7
X4.6Y-2.7
X4.7Y-2.7
X4.8Y-2.7
X4.9Y-2.7
X5.0Y-2.7
X5.1Y-2.7
X5.2Y-2.7
X5.3Y-2.7
X5.4Y-2.7
X5.5Y-2.7
X5.5Y-3.0
X5.5Y-3.1
X5.6Y-2.7
X5.6Y-3.0
X5.6Y-3.1
X5.7Y-2.7
X5.7Y-3.0
X5.7Y-3.1
X5.8Y-2.7
X5.8Y-3.0
X5.8Y-3.1
X5.9Y-2.7
X5.9Y-3.0
X5.9Y-3.1
X6.0Y-2.7
X6.0Y-3.0
X6.0Y-3.1
X6.1Y-2.7
X6.1Y-3.0
X6.1Y-3.1
X6.2Y-2.7
X6.2Y-3.0
X6.2Y-3.1
M30
