%TF.GenerationSoftware,KiCad,Pcbnew,9.0.5*%
%TF.CreationDate,2026-06-12T21:43:16+02:00*%
%TF.ProjectId,Explit,4578706c-6974-42e6-9b69-6361645f7063,rev?*%
%TF.SameCoordinates,Original*%
%TF.FileFunction,Legend,Bot*%
%TF.FilePolarity,Positive*%
%FSLAX46Y46*%
G04 Gerber Fmt 4.6, Leading zero omitted, Abs format (unit mm)*
G04 Created by KiCad (PCBNEW 9.0.5) date 2026-06-12 21:43:16*
%MOMM*%
%LPD*%
G01*
G04 APERTURE LIST*
%ADD10C,0.100000*%
%ADD11C,0.150000*%
%ADD12C,0.120000*%
G04 APERTURE END LIST*
D10*
X157668306Y-81406419D02*
X158239734Y-81406419D01*
X157954020Y-81406419D02*
X157954020Y-80406419D01*
X157954020Y-80406419D02*
X158049258Y-80549276D01*
X158049258Y-80549276D02*
X158144496Y-80644514D01*
X158144496Y-80644514D02*
X158239734Y-80692133D01*
X156763544Y-80406419D02*
X157239734Y-80406419D01*
X157239734Y-80406419D02*
X157287353Y-80882609D01*
X157287353Y-80882609D02*
X157239734Y-80834990D01*
X157239734Y-80834990D02*
X157144496Y-80787371D01*
X157144496Y-80787371D02*
X156906401Y-80787371D01*
X156906401Y-80787371D02*
X156811163Y-80834990D01*
X156811163Y-80834990D02*
X156763544Y-80882609D01*
X156763544Y-80882609D02*
X156715925Y-80977847D01*
X156715925Y-80977847D02*
X156715925Y-81215942D01*
X156715925Y-81215942D02*
X156763544Y-81311180D01*
X156763544Y-81311180D02*
X156811163Y-81358800D01*
X156811163Y-81358800D02*
X156906401Y-81406419D01*
X156906401Y-81406419D02*
X157144496Y-81406419D01*
X157144496Y-81406419D02*
X157239734Y-81358800D01*
X157239734Y-81358800D02*
X157287353Y-81311180D01*
X139951734Y-73643657D02*
X139904115Y-73596038D01*
X139904115Y-73596038D02*
X139808877Y-73548419D01*
X139808877Y-73548419D02*
X139570782Y-73548419D01*
X139570782Y-73548419D02*
X139475544Y-73596038D01*
X139475544Y-73596038D02*
X139427925Y-73643657D01*
X139427925Y-73643657D02*
X139380306Y-73738895D01*
X139380306Y-73738895D02*
X139380306Y-73834133D01*
X139380306Y-73834133D02*
X139427925Y-73976990D01*
X139427925Y-73976990D02*
X139999353Y-74548419D01*
X139999353Y-74548419D02*
X139380306Y-74548419D01*
X157915640Y-74513143D02*
X158487068Y-74513143D01*
X158201354Y-74513143D02*
X158201354Y-73513143D01*
X158201354Y-73513143D02*
X158296592Y-73656000D01*
X158296592Y-73656000D02*
X158391830Y-73751238D01*
X158391830Y-73751238D02*
X158487068Y-73798857D01*
X157058497Y-73513143D02*
X157248973Y-73513143D01*
X157248973Y-73513143D02*
X157344211Y-73560762D01*
X157344211Y-73560762D02*
X157391830Y-73608381D01*
X157391830Y-73608381D02*
X157487068Y-73751238D01*
X157487068Y-73751238D02*
X157534687Y-73941714D01*
X157534687Y-73941714D02*
X157534687Y-74322666D01*
X157534687Y-74322666D02*
X157487068Y-74417904D01*
X157487068Y-74417904D02*
X157439449Y-74465524D01*
X157439449Y-74465524D02*
X157344211Y-74513143D01*
X157344211Y-74513143D02*
X157153735Y-74513143D01*
X157153735Y-74513143D02*
X157058497Y-74465524D01*
X157058497Y-74465524D02*
X157010878Y-74417904D01*
X157010878Y-74417904D02*
X156963259Y-74322666D01*
X156963259Y-74322666D02*
X156963259Y-74084571D01*
X156963259Y-74084571D02*
X157010878Y-73989333D01*
X157010878Y-73989333D02*
X157058497Y-73941714D01*
X157058497Y-73941714D02*
X157153735Y-73894095D01*
X157153735Y-73894095D02*
X157344211Y-73894095D01*
X157344211Y-73894095D02*
X157439449Y-73941714D01*
X157439449Y-73941714D02*
X157487068Y-73989333D01*
X157487068Y-73989333D02*
X157534687Y-74084571D01*
X139380306Y-81406419D02*
X139951734Y-81406419D01*
X139666020Y-81406419D02*
X139666020Y-80406419D01*
X139666020Y-80406419D02*
X139761258Y-80549276D01*
X139761258Y-80549276D02*
X139856496Y-80644514D01*
X139856496Y-80644514D02*
X139951734Y-80692133D01*
D11*
X136774819Y-77136666D02*
X137489104Y-77136666D01*
X137489104Y-77136666D02*
X137631961Y-77089047D01*
X137631961Y-77089047D02*
X137727200Y-76993809D01*
X137727200Y-76993809D02*
X137774819Y-76850952D01*
X137774819Y-76850952D02*
X137774819Y-76755714D01*
X137774819Y-78136666D02*
X137774819Y-77565238D01*
X137774819Y-77850952D02*
X136774819Y-77850952D01*
X136774819Y-77850952D02*
X136917676Y-77755714D01*
X136917676Y-77755714D02*
X137012914Y-77660476D01*
X137012914Y-77660476D02*
X137060533Y-77565238D01*
D12*
%TO.C,J1*%
X138320000Y-80120000D02*
X138320000Y-78740000D01*
X139700000Y-80120000D02*
X138320000Y-80120000D01*
X140970000Y-80120000D02*
X158860000Y-80120000D01*
X140970000Y-80120000D02*
X140970000Y-77470000D01*
X158860000Y-80120000D02*
X158860000Y-74820000D01*
X138320000Y-77470000D02*
X138320000Y-74820000D01*
X140970000Y-77470000D02*
X138320000Y-77470000D01*
X138320000Y-74820000D02*
X158860000Y-74820000D01*
%TD*%
M02*
